<?xml version="1.0" encoding="utf-8"?>
<!-- Generator: Adobe Illustrator 16.0.4, SVG Export Plug-In . SVG Version: 6.00 Build 0)  -->
<!DOCTYPE svg PUBLIC "-//W3C//DTD SVG 1.1//EN" "http://www.w3.org/Graphics/SVG/1.1/DTD/svg11.dtd">
<svg version="1.1" id="Layer_1" xmlns="http://www.w3.org/2000/svg" xmlns:xlink="http://www.w3.org/1999/xlink" x="0px" y="0px"
	 width="1071.107px" height="1079.888px" viewBox="0 0 1071.107 1079.888" style="enable-background:new 0 0 1071.107 1079.888;"
	 xml:space="preserve">
<style type="text/css">
<![CDATA[
	.st0{fill:#EAE1C2;}
]]>
</style>
<g>
	<path class="st0" d="M485.992,37.197c34.912,0,69.825,0,104.739,0c-0.57,73.017-12.949,145.116-16.846,217.916
		c-2.488,46.642-11.699,92.947-13.624,139.583c-1.282,31.156-12.198,62.353-2.664,100.22
		c37.678-63.521,72.249-122.272,107.284-180.755c39.648-66.182,79.92-131.993,119.422-198.26c8.268-13.88,16.24-15.64,28.9-5.544
		c16.275,12.989,33.084,25.464,50.512,36.85c16.281,10.63,18.086,19.5,4.121,34.868C791.27,266.337,714.65,350.615,640.367,436.873
		c-20.275,23.54-46.754,42.262-60.102,71.653c-0.604,0.273-1.301,0.436-1.772,0.844c-0.296,0.251-0.251,0.881-0.363,1.34
		c0.703-0.729,1.41-1.469,2.112-2.201c27.579,0.866,48.702-16.933,72.319-26.531c112.615-45.772,224.422-93.528,336.195-141.34
		c16.701-7.144,22.773-2.763,28.225,13.337c7.451,22.007,11.566,45.368,24.125,65.517c0,5.237,0,10.476,0,15.711
		c-5.199,0.323-10.566-0.06-15.58,1.076c-100.49,22.788-200.934,45.791-301.402,68.667c-46.186,10.514-92.419,20.851-138.636,31.269
		c0.104,1.54,0.208,3.079,0.311,4.619c151.769,34.617,303.541,69.228,455.308,103.847c0,3.495,0,6.983,0,10.475
		c-10.49,27.362-20.918,54.74-26.473,83.663c-3.396,1.816-6.797,3.636-10.199,5.458c-139.867-59.71-279.732-119.42-419.605-179.121
		c-1.521,2.004-3.037,4.01-4.563,6.015c14.136,16.757,27.981,33.759,42.459,50.21c51.608,58.673,103.133,117.421,155.272,175.611
		c34.73,38.759,70.443,76.628,105.721,114.898c0.057,1.611,0.102,3.219,0.133,4.836c-27.162,17.863-54.729,35.179-78.523,57.624
		c-3.504,0.11-7.014,0.223-10.52,0.332c-78.512-129.834-157.025-259.67-238.337-394.134c-7.021,36.204,2.215,64.993,3.417,94.105
		c1.896,45.897,6.54,91.716,11.12,137.459c7.697,76.771,17.086,153.378,19.725,230.579c-34.914,0-69.827,0-104.739,0
		c5.174-52.605,10.514-105.2,15.488-157.827c7.01-74.211,13.935-148.428,20.513-222.678c2.357-26.644,3.598-53.384,5.349-80.082
		c-49.204,72.693-93.785,146.267-138.321,219.864c-34.611,57.204-71.558,113.021-102.303,172.514
		c-3.425,0.108-6.853,0.22-10.283,0.327c-26.189-19.184-52.387-38.372-78.578-57.562c-0.078-1.866-0.154-3.736-0.232-5.608
		C298.682,798.199,399.742,684.766,500.8,571.331c-7.669-4.107-11.062-3.843-14.039-2.597
		c-87.354,36.605-175.04,72.442-261.833,110.326c-49.23,21.478-100.454,38.503-147.502,64.936
		c-12.448-1.074-12.682-11.769-16.133-20.154c-9.312-22.616-12.355-47.574-25.68-68.687c0-3.491,0-6.979,0-10.475
		c153.658-34.697,307.315-69.396,460.976-104.087c-94.142-25.221-187.169-46.377-280.313-66.992
		C156.167,460.3,96.7,443.924,35.614,435.203c0-3.493,0-6.979,0-10.474c18.332-26.9,21.186-59.269,31.438-89.022
		c3.475-0.139,6.949-0.271,10.424-0.41c135.613,57.3,271.229,114.599,406.844,171.898c-4.716-23.471-15.886-38.312-28.546-52.518
		c-50.856-57.059-100.888-114.855-151.878-171.791c-34.721-38.772-70.531-76.57-105.855-114.804c0-3.426,0-6.849,0.002-10.275
		c30.141-14.469,52.688-40.766,83.779-53.749c1.753,0.393,3.506,0.782,5.26,1.174c78.163,130.178,156.325,260.355,234.491,390.526
		c2.267-1.107,4.53-2.211,6.799-3.314C514.243,340.699,500.114,188.946,485.992,37.197z"/>
</g>
</svg>
